# xmcd CD database file
#
# Track frame offsets:
#	150
#	18165
#	35477
#	53510
#	76260
#	96567
#	118095
#	134955
#	158252
#	180802
#
# Disc length: 2811 seconds
#
# Revision: 4
# Processed by: cddbd v1.5.2PL0 Copyright (c) Steve Scherf et al.
# Submitted via: FreeDB 13.2
#
DISCID=730af90a
DTITLE=Coco Montoya - Gotta Mind to Travel
DYEAR=1995
DGENRE=Blues
TTITLE0=Too Much Water
TTITLE1=Gotta Mind to Travel
TTITLE2=Talkin' Woman Blues
TTITLE3=Someday after Awhile
TTITLE4=Top of the Hill
TTITLE5=Same Dog
TTITLE6=Love Jail
TTITLE7=You Don't Love Me
TTITLE8=Nothin' in the Streets
TTITLE9=Am I Losing You
EXTD=
EXTT0=
EXTT1=
EXTT2=
EXTT3=
EXTT4=
EXTT5=
EXTT6=
EXTT7=
EXTT8=
EXTT9=
PLAYORDER=
